<mxfile host="app.diagrams.net" agent="Mozilla/5.0 (Windows NT 10.0; Win64; x64) AppleWebKit/537.36 (KHTML, like Gecko) Chrome/130.0.0.0 Safari/537.36" version="24.8.6">
  <diagram name="Página-1" id="EITY9DMGlJ6bDCdhtIEx">
    <mxGraphModel dx="1687" dy="918" grid="1" gridSize="10" guides="1" tooltips="1" connect="1" arrows="1" fold="1" page="1" pageScale="1" pageWidth="827" pageHeight="1169" math="0" shadow="0">
      <root>
        <mxCell id="0" />
        <mxCell id="1" parent="0" />
        <mxCell id="W5qNhyzFp8VjFmXFxGwz-1" value="Projeto: TECHMAN&lt;div&gt;UML - DIagrama de Atividades&lt;/div&gt;" style="text;html=1;align=center;verticalAlign=middle;whiteSpace=wrap;rounded=0;" vertex="1" parent="1">
          <mxGeometry x="339" y="40" width="150" height="40" as="geometry" />
        </mxCell>
        <mxCell id="W5qNhyzFp8VjFmXFxGwz-2" value="" style="ellipse;html=1;shape=startState;fillColor=#000000;strokeColor=#ff0000;" vertex="1" parent="1">
          <mxGeometry x="399" y="100" width="30" height="30" as="geometry" />
        </mxCell>
        <mxCell id="W5qNhyzFp8VjFmXFxGwz-3" value="" style="edgeStyle=orthogonalEdgeStyle;html=1;verticalAlign=bottom;endArrow=open;endSize=8;strokeColor=#ff0000;rounded=0;entryX=0.5;entryY=0;entryDx=0;entryDy=0;" edge="1" source="W5qNhyzFp8VjFmXFxGwz-2" parent="1" target="W5qNhyzFp8VjFmXFxGwz-6">
          <mxGeometry relative="1" as="geometry">
            <mxPoint x="414" y="190" as="targetPoint" />
          </mxGeometry>
        </mxCell>
        <mxCell id="W5qNhyzFp8VjFmXFxGwz-4" value="Atividade: Inclusão de&amp;nbsp; novo equipamento" style="text;html=1;align=center;verticalAlign=middle;whiteSpace=wrap;rounded=0;" vertex="1" parent="1">
          <mxGeometry x="149" y="100" width="230" height="30" as="geometry" />
        </mxCell>
        <mxCell id="W5qNhyzFp8VjFmXFxGwz-5" value="Tela de Login" style="shape=umlFrame;whiteSpace=wrap;html=1;pointerEvents=0;" vertex="1" parent="1">
          <mxGeometry x="149" y="140" width="530" height="590" as="geometry" />
        </mxCell>
        <mxCell id="W5qNhyzFp8VjFmXFxGwz-6" value="Acessar o Sistema&lt;div&gt;Tela de Login&lt;/div&gt;" style="rounded=1;whiteSpace=wrap;html=1;arcSize=40;fontColor=#000000;fillColor=#ffffc0;strokeColor=#ff0000;" vertex="1" parent="1">
          <mxGeometry x="354" y="170" width="120" height="40" as="geometry" />
        </mxCell>
        <mxCell id="W5qNhyzFp8VjFmXFxGwz-7" value="" style="edgeStyle=orthogonalEdgeStyle;html=1;verticalAlign=bottom;endArrow=open;endSize=8;strokeColor=#ff0000;rounded=0;entryX=0.5;entryY=0;entryDx=0;entryDy=0;" edge="1" source="W5qNhyzFp8VjFmXFxGwz-6" parent="1" target="W5qNhyzFp8VjFmXFxGwz-8">
          <mxGeometry relative="1" as="geometry">
            <mxPoint x="410" y="470" as="targetPoint" />
          </mxGeometry>
        </mxCell>
        <mxCell id="W5qNhyzFp8VjFmXFxGwz-8" value="Informar a senha através do teclado virtual" style="rounded=1;whiteSpace=wrap;html=1;arcSize=40;fontColor=#000000;fillColor=#ffffc0;strokeColor=#ff0000;" vertex="1" parent="1">
          <mxGeometry x="354" y="240" width="121" height="50" as="geometry" />
        </mxCell>
        <mxCell id="W5qNhyzFp8VjFmXFxGwz-9" value="" style="edgeStyle=orthogonalEdgeStyle;html=1;verticalAlign=bottom;endArrow=open;endSize=8;strokeColor=#ff0000;rounded=0;" edge="1" source="W5qNhyzFp8VjFmXFxGwz-8" parent="1" target="W5qNhyzFp8VjFmXFxGwz-10">
          <mxGeometry relative="1" as="geometry">
            <mxPoint x="339" y="540" as="targetPoint" />
          </mxGeometry>
        </mxCell>
        <mxCell id="W5qNhyzFp8VjFmXFxGwz-10" value="comprimento da senha &amp;lt; 6" style="rhombus;whiteSpace=wrap;html=1;fontColor=#000000;fillColor=#ffffc0;strokeColor=#ff0000;" vertex="1" parent="1">
          <mxGeometry x="356.5" y="340" width="116" height="90" as="geometry" />
        </mxCell>
        <mxCell id="W5qNhyzFp8VjFmXFxGwz-11" value="no" style="edgeStyle=orthogonalEdgeStyle;html=1;align=left;verticalAlign=bottom;endArrow=open;endSize=8;strokeColor=#ff0000;rounded=0;entryX=0;entryY=0.5;entryDx=0;entryDy=0;" edge="1" source="W5qNhyzFp8VjFmXFxGwz-10" parent="1" target="W5qNhyzFp8VjFmXFxGwz-18">
          <mxGeometry x="-1" relative="1" as="geometry">
            <mxPoint x="500" y="390" as="targetPoint" />
          </mxGeometry>
        </mxCell>
        <mxCell id="W5qNhyzFp8VjFmXFxGwz-12" value="yes" style="edgeStyle=orthogonalEdgeStyle;html=1;align=left;verticalAlign=top;endArrow=open;endSize=8;strokeColor=#ff0000;rounded=0;entryX=1;entryY=0.5;entryDx=0;entryDy=0;" edge="1" source="W5qNhyzFp8VjFmXFxGwz-10" parent="1" target="W5qNhyzFp8VjFmXFxGwz-16">
          <mxGeometry x="0.0977" y="-25" relative="1" as="geometry">
            <mxPoint x="360" y="470" as="targetPoint" />
            <mxPoint as="offset" />
          </mxGeometry>
        </mxCell>
        <mxCell id="W5qNhyzFp8VjFmXFxGwz-13" value="Senha identificada" style="rhombus;whiteSpace=wrap;html=1;fontColor=#000000;fillColor=#ffffc0;strokeColor=#ff0000;" vertex="1" parent="1">
          <mxGeometry x="372.5" y="522" width="100" height="70" as="geometry" />
        </mxCell>
        <mxCell id="W5qNhyzFp8VjFmXFxGwz-14" value="no" style="edgeStyle=orthogonalEdgeStyle;html=1;align=left;verticalAlign=bottom;endArrow=open;endSize=8;strokeColor=#ff0000;rounded=0;exitX=1;exitY=0.5;exitDx=0;exitDy=0;entryX=0;entryY=0.5;entryDx=0;entryDy=0;" edge="1" parent="1" source="W5qNhyzFp8VjFmXFxGwz-13" target="W5qNhyzFp8VjFmXFxGwz-22">
          <mxGeometry x="-1" relative="1" as="geometry">
            <mxPoint x="510" y="580" as="targetPoint" />
          </mxGeometry>
        </mxCell>
        <mxCell id="W5qNhyzFp8VjFmXFxGwz-15" value="yes" style="edgeStyle=orthogonalEdgeStyle;html=1;align=left;verticalAlign=top;endArrow=open;endSize=8;strokeColor=#ff0000;rounded=0;entryX=1;entryY=0.5;entryDx=0;entryDy=0;exitX=0;exitY=0.5;exitDx=0;exitDy=0;" edge="1" parent="1" source="W5qNhyzFp8VjFmXFxGwz-13" target="W5qNhyzFp8VjFmXFxGwz-29">
          <mxGeometry x="-0.0446" y="-14" relative="1" as="geometry">
            <mxPoint x="370" y="660" as="targetPoint" />
            <mxPoint as="offset" />
          </mxGeometry>
        </mxCell>
        <mxCell id="W5qNhyzFp8VjFmXFxGwz-16" value="Botão de enviar desabilitado" style="rounded=1;whiteSpace=wrap;html=1;arcSize=40;fontColor=#000000;fillColor=#ffffc0;strokeColor=#ff0000;" vertex="1" parent="1">
          <mxGeometry x="170" y="365" width="120" height="40" as="geometry" />
        </mxCell>
        <mxCell id="W5qNhyzFp8VjFmXFxGwz-17" value="" style="edgeStyle=orthogonalEdgeStyle;html=1;verticalAlign=bottom;endArrow=open;endSize=8;strokeColor=#ff0000;rounded=0;entryX=0;entryY=0.5;entryDx=0;entryDy=0;exitX=0.5;exitY=0;exitDx=0;exitDy=0;" edge="1" source="W5qNhyzFp8VjFmXFxGwz-16" parent="1" target="W5qNhyzFp8VjFmXFxGwz-8">
          <mxGeometry relative="1" as="geometry">
            <mxPoint x="410" y="470" as="targetPoint" />
          </mxGeometry>
        </mxCell>
        <mxCell id="W5qNhyzFp8VjFmXFxGwz-18" value="Botão de enviar habilitado" style="rounded=1;whiteSpace=wrap;html=1;arcSize=40;fontColor=#000000;fillColor=#ffffc0;strokeColor=#ff0000;" vertex="1" parent="1">
          <mxGeometry x="520" y="365" width="120" height="40" as="geometry" />
        </mxCell>
        <mxCell id="W5qNhyzFp8VjFmXFxGwz-19" value="" style="edgeStyle=orthogonalEdgeStyle;html=1;verticalAlign=bottom;endArrow=open;endSize=8;strokeColor=#ff0000;rounded=0;entryX=0.5;entryY=0;entryDx=0;entryDy=0;exitX=0.5;exitY=1;exitDx=0;exitDy=0;" edge="1" parent="1" source="W5qNhyzFp8VjFmXFxGwz-18" target="W5qNhyzFp8VjFmXFxGwz-20">
          <mxGeometry relative="1" as="geometry">
            <mxPoint x="364" y="275" as="targetPoint" />
            <mxPoint x="240" y="375" as="sourcePoint" />
          </mxGeometry>
        </mxCell>
        <mxCell id="W5qNhyzFp8VjFmXFxGwz-20" value="Clicar em Enviar" style="rounded=1;whiteSpace=wrap;html=1;arcSize=40;fontColor=#000000;fillColor=#ffffc0;strokeColor=#ff0000;" vertex="1" parent="1">
          <mxGeometry x="520" y="430" width="120" height="40" as="geometry" />
        </mxCell>
        <mxCell id="W5qNhyzFp8VjFmXFxGwz-21" value="" style="edgeStyle=orthogonalEdgeStyle;html=1;verticalAlign=bottom;endArrow=open;endSize=8;strokeColor=#ff0000;rounded=0;entryX=0.5;entryY=0;entryDx=0;entryDy=0;exitX=0.5;exitY=1;exitDx=0;exitDy=0;" edge="1" parent="1" source="W5qNhyzFp8VjFmXFxGwz-20" target="W5qNhyzFp8VjFmXFxGwz-13">
          <mxGeometry relative="1" as="geometry">
            <mxPoint x="434" y="520" as="targetPoint" />
            <mxPoint x="250" y="385" as="sourcePoint" />
          </mxGeometry>
        </mxCell>
        <mxCell id="W5qNhyzFp8VjFmXFxGwz-22" value="Exibe mensagem&lt;div&gt;&quot;Senha incorreta&quot;&lt;/div&gt;" style="rounded=1;whiteSpace=wrap;html=1;arcSize=40;fontColor=#000000;fillColor=#ffffc0;strokeColor=#ff0000;" vertex="1" parent="1">
          <mxGeometry x="520" y="537" width="120" height="40" as="geometry" />
        </mxCell>
        <mxCell id="W5qNhyzFp8VjFmXFxGwz-23" value="" style="edgeStyle=orthogonalEdgeStyle;html=1;verticalAlign=bottom;endArrow=open;endSize=8;strokeColor=#ff0000;rounded=0;entryX=0.5;entryY=0;entryDx=0;entryDy=0;exitX=0.5;exitY=1;exitDx=0;exitDy=0;" edge="1" parent="1" source="W5qNhyzFp8VjFmXFxGwz-22" target="W5qNhyzFp8VjFmXFxGwz-24">
          <mxGeometry relative="1" as="geometry">
            <mxPoint x="630" y="602" as="targetPoint" />
            <mxPoint x="290" y="547" as="sourcePoint" />
          </mxGeometry>
        </mxCell>
        <mxCell id="W5qNhyzFp8VjFmXFxGwz-24" value="" style="ellipse;html=1;shape=endState;fillColor=#000000;strokeColor=#ff0000;" vertex="1" parent="1">
          <mxGeometry x="565" y="610" width="30" height="30" as="geometry" />
        </mxCell>
        <mxCell id="W5qNhyzFp8VjFmXFxGwz-25" value="Tela Principal" style="shape=umlFrame;whiteSpace=wrap;html=1;pointerEvents=0;" vertex="1" parent="1">
          <mxGeometry x="149" y="760" width="530" height="580" as="geometry" />
        </mxCell>
        <mxCell id="W5qNhyzFp8VjFmXFxGwz-26" value="perfil == 2 (Administrador)" style="rhombus;whiteSpace=wrap;html=1;fontColor=#000000;fillColor=#ffffc0;strokeColor=#ff0000;" vertex="1" parent="1">
          <mxGeometry x="183.97" y="920" width="116" height="90" as="geometry" />
        </mxCell>
        <mxCell id="W5qNhyzFp8VjFmXFxGwz-27" value="no" style="edgeStyle=orthogonalEdgeStyle;html=1;align=left;verticalAlign=bottom;endArrow=open;endSize=8;strokeColor=#ff0000;rounded=0;exitX=0;exitY=0.5;exitDx=0;exitDy=0;entryX=0;entryY=0.5;entryDx=0;entryDy=0;" edge="1" parent="1" source="W5qNhyzFp8VjFmXFxGwz-26" target="W5qNhyzFp8VjFmXFxGwz-43">
          <mxGeometry x="-0.2501" y="-6" relative="1" as="geometry">
            <mxPoint x="509.97" y="1105" as="targetPoint" />
            <mxPoint as="offset" />
          </mxGeometry>
        </mxCell>
        <mxCell id="W5qNhyzFp8VjFmXFxGwz-28" value="yes" style="edgeStyle=orthogonalEdgeStyle;html=1;align=left;verticalAlign=top;endArrow=open;endSize=8;strokeColor=#ff0000;rounded=0;entryX=0.5;entryY=0;entryDx=0;entryDy=0;exitX=0.5;exitY=1;exitDx=0;exitDy=0;" edge="1" parent="1" source="W5qNhyzFp8VjFmXFxGwz-26" target="W5qNhyzFp8VjFmXFxGwz-41">
          <mxGeometry x="-1" y="-22" relative="1" as="geometry">
            <mxPoint x="279.97" y="1105" as="targetPoint" />
            <mxPoint as="offset" />
          </mxGeometry>
        </mxCell>
        <mxCell id="W5qNhyzFp8VjFmXFxGwz-29" value="Armazena os dados do usuário no localstorage" style="rounded=1;whiteSpace=wrap;html=1;arcSize=40;fontColor=#000000;fillColor=#ffffc0;strokeColor=#ff0000;" vertex="1" parent="1">
          <mxGeometry x="180" y="472" width="120" height="50" as="geometry" />
        </mxCell>
        <mxCell id="W5qNhyzFp8VjFmXFxGwz-30" value="" style="edgeStyle=orthogonalEdgeStyle;html=1;verticalAlign=bottom;endArrow=open;endSize=8;strokeColor=#ff0000;rounded=0;entryX=0.5;entryY=0;entryDx=0;entryDy=0;exitX=0.5;exitY=1;exitDx=0;exitDy=0;" edge="1" source="W5qNhyzFp8VjFmXFxGwz-29" parent="1" target="W5qNhyzFp8VjFmXFxGwz-32">
          <mxGeometry relative="1" as="geometry">
            <mxPoint x="412.5" y="685" as="targetPoint" />
            <mxPoint x="72.5" y="630" as="sourcePoint" />
          </mxGeometry>
        </mxCell>
        <mxCell id="W5qNhyzFp8VjFmXFxGwz-31" value="" style="edgeStyle=orthogonalEdgeStyle;html=1;verticalAlign=bottom;endArrow=open;endSize=8;strokeColor=#ff0000;rounded=0;entryX=0.5;entryY=0;entryDx=0;entryDy=0;exitX=0.5;exitY=1;exitDx=0;exitDy=0;" edge="1" source="W5qNhyzFp8VjFmXFxGwz-32" parent="1" target="W5qNhyzFp8VjFmXFxGwz-37">
          <mxGeometry relative="1" as="geometry">
            <mxPoint x="549" y="685" as="targetPoint" />
            <mxPoint x="209" y="630" as="sourcePoint" />
          </mxGeometry>
        </mxCell>
        <mxCell id="W5qNhyzFp8VjFmXFxGwz-32" value="Direciona para a Tela Principal" style="rounded=1;whiteSpace=wrap;html=1;arcSize=40;fontColor=#000000;fillColor=#ffffc0;strokeColor=#ff0000;" vertex="1" parent="1">
          <mxGeometry x="180" y="560" width="120" height="50" as="geometry" />
        </mxCell>
        <mxCell id="W5qNhyzFp8VjFmXFxGwz-33" value="localstorage possui dados?" style="rhombus;whiteSpace=wrap;html=1;fontColor=#000000;fillColor=#ffffc0;strokeColor=#ff0000;" vertex="1" parent="1">
          <mxGeometry x="353.97" y="920" width="128.58" height="90" as="geometry" />
        </mxCell>
        <mxCell id="W5qNhyzFp8VjFmXFxGwz-34" value="no" style="edgeStyle=orthogonalEdgeStyle;html=1;align=left;verticalAlign=bottom;endArrow=open;endSize=8;strokeColor=#ff0000;rounded=0;exitX=1;exitY=0.5;exitDx=0;exitDy=0;entryX=0.5;entryY=1;entryDx=0;entryDy=0;" edge="1" source="W5qNhyzFp8VjFmXFxGwz-33" parent="1" target="W5qNhyzFp8VjFmXFxGwz-38">
          <mxGeometry x="-0.9229" y="5" relative="1" as="geometry">
            <mxPoint x="510" y="940" as="targetPoint" />
            <mxPoint as="offset" />
          </mxGeometry>
        </mxCell>
        <mxCell id="W5qNhyzFp8VjFmXFxGwz-35" value="yes" style="edgeStyle=orthogonalEdgeStyle;html=1;align=left;verticalAlign=top;endArrow=open;endSize=8;strokeColor=#ff0000;rounded=0;entryX=1;entryY=0.5;entryDx=0;entryDy=0;exitX=0;exitY=0.5;exitDx=0;exitDy=0;" edge="1" source="W5qNhyzFp8VjFmXFxGwz-33" parent="1" target="W5qNhyzFp8VjFmXFxGwz-26">
          <mxGeometry x="0.2593" y="-25" relative="1" as="geometry">
            <mxPoint x="269.97" y="940" as="targetPoint" />
            <mxPoint as="offset" />
          </mxGeometry>
        </mxCell>
        <mxCell id="W5qNhyzFp8VjFmXFxGwz-36" value="" style="edgeStyle=orthogonalEdgeStyle;html=1;verticalAlign=bottom;endArrow=open;endSize=8;strokeColor=#ff0000;rounded=0;entryX=0.5;entryY=0;entryDx=0;entryDy=0;exitX=0.5;exitY=1;exitDx=0;exitDy=0;" edge="1" parent="1" source="W5qNhyzFp8VjFmXFxGwz-37" target="W5qNhyzFp8VjFmXFxGwz-33">
          <mxGeometry relative="1" as="geometry">
            <mxPoint x="559" y="760" as="targetPoint" />
            <mxPoint x="219" y="705" as="sourcePoint" />
          </mxGeometry>
        </mxCell>
        <mxCell id="W5qNhyzFp8VjFmXFxGwz-37" value="Le os dados do localstorage" style="rounded=1;whiteSpace=wrap;html=1;arcSize=40;fontColor=#000000;fillColor=#ffffc0;strokeColor=#ff0000;" vertex="1" parent="1">
          <mxGeometry x="359" y="780" width="120" height="50" as="geometry" />
        </mxCell>
        <mxCell id="W5qNhyzFp8VjFmXFxGwz-38" value="Direciona de volta para a tela de Login" style="rounded=1;whiteSpace=wrap;html=1;arcSize=40;fontColor=#000000;fillColor=#ffffc0;strokeColor=#ff0000;" vertex="1" parent="1">
          <mxGeometry x="540" y="780" width="120" height="50" as="geometry" />
        </mxCell>
        <mxCell id="W5qNhyzFp8VjFmXFxGwz-39" value="" style="edgeStyle=orthogonalEdgeStyle;html=1;verticalAlign=bottom;endArrow=open;endSize=8;strokeColor=#ff0000;rounded=0;entryX=0.856;entryY=0.511;entryDx=0;entryDy=0;exitX=0.5;exitY=0;exitDx=0;exitDy=0;entryPerimeter=0;" edge="1" parent="1" source="W5qNhyzFp8VjFmXFxGwz-38" target="W5qNhyzFp8VjFmXFxGwz-2">
          <mxGeometry relative="1" as="geometry">
            <mxPoint x="429" y="790" as="targetPoint" />
            <mxPoint x="250" y="620" as="sourcePoint" />
            <Array as="points">
              <mxPoint x="600" y="700" />
              <mxPoint x="660" y="700" />
              <mxPoint x="660" y="115" />
            </Array>
          </mxGeometry>
        </mxCell>
        <mxCell id="W5qNhyzFp8VjFmXFxGwz-40" value="" style="edgeStyle=orthogonalEdgeStyle;html=1;verticalAlign=bottom;endArrow=open;endSize=8;strokeColor=#ff0000;rounded=0;entryX=0;entryY=0.5;entryDx=0;entryDy=0;exitX=1;exitY=0.5;exitDx=0;exitDy=0;" edge="1" parent="1" source="W5qNhyzFp8VjFmXFxGwz-41" target="W5qNhyzFp8VjFmXFxGwz-46">
          <mxGeometry relative="1" as="geometry">
            <mxPoint x="388.97" y="1150" as="targetPoint" />
            <mxPoint x="189.97" y="995" as="sourcePoint" />
          </mxGeometry>
        </mxCell>
        <mxCell id="W5qNhyzFp8VjFmXFxGwz-41" value="Habilita Botão Novo Equipamento" style="rounded=1;whiteSpace=wrap;html=1;arcSize=40;fontColor=#000000;fillColor=#ffffc0;strokeColor=#ff0000;" vertex="1" parent="1">
          <mxGeometry x="181.97" y="1045" width="120" height="50" as="geometry" />
        </mxCell>
        <mxCell id="W5qNhyzFp8VjFmXFxGwz-42" value="" style="edgeStyle=orthogonalEdgeStyle;html=1;verticalAlign=bottom;endArrow=open;endSize=8;strokeColor=#ff0000;rounded=0;entryX=0.5;entryY=0;entryDx=0;entryDy=0;exitX=0.5;exitY=1;exitDx=0;exitDy=0;" edge="1" source="W5qNhyzFp8VjFmXFxGwz-43" parent="1" target="W5qNhyzFp8VjFmXFxGwz-44">
          <mxGeometry relative="1" as="geometry">
            <mxPoint x="568.97" y="1090" as="targetPoint" />
            <mxPoint x="369.97" y="935" as="sourcePoint" />
          </mxGeometry>
        </mxCell>
        <mxCell id="W5qNhyzFp8VjFmXFxGwz-43" value="Disponibiliza somente funcionalidades de leitura" style="rounded=1;whiteSpace=wrap;html=1;arcSize=40;fontColor=#000000;fillColor=#ffffc0;strokeColor=#ff0000;" vertex="1" parent="1">
          <mxGeometry x="210" y="790" width="129" height="60" as="geometry" />
        </mxCell>
        <mxCell id="W5qNhyzFp8VjFmXFxGwz-44" value="" style="ellipse;html=1;shape=endState;fillColor=#000000;strokeColor=#ff0000;" vertex="1" parent="1">
          <mxGeometry x="259.5" y="880" width="30" height="30" as="geometry" />
        </mxCell>
        <mxCell id="W5qNhyzFp8VjFmXFxGwz-45" value="" style="edgeStyle=orthogonalEdgeStyle;html=1;verticalAlign=bottom;endArrow=open;endSize=8;strokeColor=#ff0000;rounded=0;entryX=0.5;entryY=0;entryDx=0;entryDy=0;exitX=0.5;exitY=1;exitDx=0;exitDy=0;" edge="1" parent="1" source="W5qNhyzFp8VjFmXFxGwz-46" target="W5qNhyzFp8VjFmXFxGwz-52">
          <mxGeometry relative="1" as="geometry">
            <mxPoint x="560.97" y="1135" as="targetPoint" />
            <mxPoint x="361.97" y="980" as="sourcePoint" />
          </mxGeometry>
        </mxCell>
        <mxCell id="W5qNhyzFp8VjFmXFxGwz-46" value="Clicar no botão Novo Equipamento" style="rounded=1;whiteSpace=wrap;html=1;arcSize=40;fontColor=#000000;fillColor=#ffffc0;strokeColor=#ff0000;" vertex="1" parent="1">
          <mxGeometry x="362.5" y="1045" width="120" height="50" as="geometry" />
        </mxCell>
        <mxCell id="W5qNhyzFp8VjFmXFxGwz-48" value="" style="edgeStyle=orthogonalEdgeStyle;rounded=0;orthogonalLoop=1;jettySize=auto;html=1;entryX=1;entryY=0.5;entryDx=0;entryDy=0;exitX=0.5;exitY=0.5;exitDx=0;exitDy=0;exitPerimeter=0;" edge="1" parent="1" source="W5qNhyzFp8VjFmXFxGwz-47" target="W5qNhyzFp8VjFmXFxGwz-8">
          <mxGeometry relative="1" as="geometry" />
        </mxCell>
        <mxCell id="W5qNhyzFp8VjFmXFxGwz-47" value="Administrador" style="shape=umlActor;verticalLabelPosition=bottom;verticalAlign=top;html=1;" vertex="1" parent="1">
          <mxGeometry x="540" y="235" width="30" height="60" as="geometry" />
        </mxCell>
        <mxCell id="W5qNhyzFp8VjFmXFxGwz-49" value="" style="edgeStyle=orthogonalEdgeStyle;rounded=0;orthogonalLoop=1;jettySize=auto;html=1;entryX=1;entryY=0.5;entryDx=0;entryDy=0;exitX=0.5;exitY=0.5;exitDx=0;exitDy=0;exitPerimeter=0;" edge="1" parent="1" source="W5qNhyzFp8VjFmXFxGwz-50" target="W5qNhyzFp8VjFmXFxGwz-46">
          <mxGeometry relative="1" as="geometry">
            <mxPoint x="430.0000000000002" y="1095" as="targetPoint" />
          </mxGeometry>
        </mxCell>
        <mxCell id="W5qNhyzFp8VjFmXFxGwz-50" value="Administrador" style="shape=umlActor;verticalLabelPosition=bottom;verticalAlign=top;html=1;" vertex="1" parent="1">
          <mxGeometry x="570" y="1040" width="30" height="60" as="geometry" />
        </mxCell>
        <mxCell id="W5qNhyzFp8VjFmXFxGwz-51" value="" style="edgeStyle=orthogonalEdgeStyle;html=1;verticalAlign=bottom;endArrow=open;endSize=8;strokeColor=#ff0000;rounded=0;entryX=1;entryY=0.5;entryDx=0;entryDy=0;exitX=0;exitY=0.5;exitDx=0;exitDy=0;" edge="1" parent="1" source="W5qNhyzFp8VjFmXFxGwz-52" target="W5qNhyzFp8VjFmXFxGwz-54">
          <mxGeometry relative="1" as="geometry">
            <mxPoint x="570.97" y="1145" as="targetPoint" />
            <mxPoint x="371.97" y="990" as="sourcePoint" />
          </mxGeometry>
        </mxCell>
        <mxCell id="W5qNhyzFp8VjFmXFxGwz-52" value="Preencher todos os campos obrigatórios" style="rounded=1;whiteSpace=wrap;html=1;arcSize=40;fontColor=#000000;fillColor=#ffffc0;strokeColor=#ff0000;" vertex="1" parent="1">
          <mxGeometry x="362.5" y="1119" width="120" height="50" as="geometry" />
        </mxCell>
        <mxCell id="W5qNhyzFp8VjFmXFxGwz-53" value="" style="edgeStyle=orthogonalEdgeStyle;html=1;verticalAlign=bottom;endArrow=open;endSize=8;strokeColor=#ff0000;rounded=0;entryX=0;entryY=0.5;entryDx=0;entryDy=0;exitX=0.5;exitY=1;exitDx=0;exitDy=0;" edge="1" source="W5qNhyzFp8VjFmXFxGwz-54" parent="1" target="W5qNhyzFp8VjFmXFxGwz-55">
          <mxGeometry relative="1" as="geometry">
            <mxPoint x="413.47" y="1195" as="targetPoint" />
            <mxPoint x="214.47000000000003" y="1040" as="sourcePoint" />
          </mxGeometry>
        </mxCell>
        <mxCell id="W5qNhyzFp8VjFmXFxGwz-54" value="Preencher todos os campos obrigatórios" style="rounded=1;whiteSpace=wrap;html=1;arcSize=40;fontColor=#000000;fillColor=#ffffc0;strokeColor=#ff0000;" vertex="1" parent="1">
          <mxGeometry x="183.97" y="1119" width="120" height="50" as="geometry" />
        </mxCell>
        <mxCell id="W5qNhyzFp8VjFmXFxGwz-55" value="Clicar em Cadastrar" style="rounded=1;whiteSpace=wrap;html=1;arcSize=40;fontColor=#000000;fillColor=#ffffc0;strokeColor=#ff0000;" vertex="1" parent="1">
          <mxGeometry x="359" y="1190" width="120" height="50" as="geometry" />
        </mxCell>
        <mxCell id="W5qNhyzFp8VjFmXFxGwz-56" value="" style="ellipse;html=1;shape=endState;fillColor=#000000;strokeColor=#ff0000;" vertex="1" parent="1">
          <mxGeometry x="565" y="1200" width="30" height="30" as="geometry" />
        </mxCell>
        <mxCell id="W5qNhyzFp8VjFmXFxGwz-60" value="" style="edgeStyle=orthogonalEdgeStyle;html=1;verticalAlign=bottom;endArrow=open;endSize=8;strokeColor=#ff0000;rounded=0;entryX=0;entryY=0.5;entryDx=0;entryDy=0;exitX=1;exitY=0.5;exitDx=0;exitDy=0;" edge="1" parent="1" source="W5qNhyzFp8VjFmXFxGwz-55" target="W5qNhyzFp8VjFmXFxGwz-56">
          <mxGeometry relative="1" as="geometry">
            <mxPoint x="314" y="1154" as="targetPoint" />
            <mxPoint x="373" y="1154" as="sourcePoint" />
          </mxGeometry>
        </mxCell>
      </root>
    </mxGraphModel>
  </diagram>
</mxfile>
